<svg width="28" height="28" viewBox="0 0 28 28" fill="none" xmlns="http://www.w3.org/2000/svg">
<rect x="1" y="1" width="26" height="26" rx="13" fill="#FF3636"/>
<rect x="1" y="1" width="26" height="26" rx="13" stroke="white" stroke-width="2"/>
<path d="M14 12.4477V14.5533M14 16.659H14.0053M13.0998 9.74191L8.6411 17.1854C8.54918 17.3446 8.50053 17.5251 8.50002 17.709C8.4995 17.8928 8.54713 18.0736 8.63817 18.2333C8.72921 18.393 8.86048 18.5261 9.01892 18.6193C9.17736 18.7125 9.35745 18.7627 9.54128 18.7647H18.4588C18.6426 18.7627 18.8227 18.7125 18.9811 18.6193C19.1396 18.5261 19.2708 18.393 19.3619 18.2333C19.4529 18.0736 19.5005 17.8928 19.5 17.709C19.4995 17.5251 19.4509 17.3446 19.3589 17.1854L14.9002 9.74191C14.8063 9.5872 14.6742 9.45929 14.5165 9.37052C14.3589 9.28174 14.181 9.23511 14 9.23511C13.8191 9.23511 13.6412 9.28174 13.4835 9.37052C13.3258 9.45929 13.1937 9.5872 13.0998 9.74191Z" stroke="white" stroke-width="1.05283" stroke-linecap="round" stroke-linejoin="round"/>
</svg>
