<svg width="42" height="42" viewBox="0 0 42 42" fill="none" xmlns="http://www.w3.org/2000/svg">
<path d="M10.8717 35.5614C7.7913 35.5614 6.35156 34.1049 6.35156 31.0246V27.442C6.35156 27.1239 6.25112 26.8895 6.01674 26.6551L3.48884 24.1105C1.3125 21.9342 1.29576 19.8917 3.48884 17.7154L6.01674 15.1708C6.25112 14.9364 6.35156 14.702 6.35156 14.3839V10.8013C6.35156 7.6875 7.7913 6.26451 10.8717 6.26451H14.4542C14.7891 6.26451 15.0234 6.16406 15.2578 5.94643L17.8025 3.41853C19.9788 1.22545 22.0045 1.20871 24.1975 3.40179L26.7422 5.94643C26.9766 6.1808 27.2109 6.26451 27.529 6.26451H31.1116C34.192 6.26451 35.6484 7.72098 35.6484 10.8013V14.3839C35.6484 14.702 35.7321 14.9196 35.9665 15.1708L38.4944 17.7154C40.6708 19.8917 40.6875 21.9342 38.4944 24.1105L35.9665 26.6551C35.7321 26.8895 35.6484 27.1239 35.6484 27.442V31.0246C35.6484 34.1049 34.192 35.5614 31.1116 35.5614H27.529C27.2109 35.5614 26.9766 35.6451 26.7422 35.8795L24.1975 38.4074C22.0212 40.5837 19.9788 40.6004 17.8025 38.4074L15.2578 35.8795C15.0067 35.6451 14.7891 35.5614 14.4542 35.5614H10.8717Z" fill="#FDEEDF"/>
<path d="M27.6667 16L18.5 25.1667L14.3333 21" stroke="#FB8A0E" stroke-width="2" stroke-linecap="round" stroke-linejoin="round"/>
</svg>
