<svg width="16" height="16" viewBox="0 0 16 16" fill="none" xmlns="http://www.w3.org/2000/svg">
<g clip-path="url(#clip0_246_3598)">
<path d="M3.33337 9.99998H2.66671C2.31309 9.99998 1.97395 9.8595 1.7239 9.60946C1.47385 9.35941 1.33337 9.02027 1.33337 8.66665V2.66665C1.33337 2.31302 1.47385 1.97389 1.7239 1.72384C1.97395 1.47379 2.31309 1.33331 2.66671 1.33331H8.66671C9.02033 1.33331 9.35947 1.47379 9.60952 1.72384C9.85956 1.97389 10 2.31302 10 2.66665V3.33331M7.33337 5.99998H13.3334C14.0698 5.99998 14.6667 6.59693 14.6667 7.33331V13.3333C14.6667 14.0697 14.0698 14.6666 13.3334 14.6666H7.33337C6.59699 14.6666 6.00004 14.0697 6.00004 13.3333V7.33331C6.00004 6.59693 6.59699 5.99998 7.33337 5.99998Z" stroke="#5C5C5C" stroke-width="1.33333" stroke-linecap="round" stroke-linejoin="round"/>
</g>
<defs>
<clipPath id="clip0_246_3598">
<rect width="16" height="16" fill="white"/>
</clipPath>
</defs>
</svg>
