<svg width="20" height="20" viewBox="0 0 20 20" fill="none" xmlns="http://www.w3.org/2000/svg">
<path d="M14.0703 6.59375L12.5547 5.08594L13.4062 4.25C13.8203 3.84375 14.2891 3.80469 14.6719 4.1875L14.9766 4.49219C15.3594 4.88281 15.3359 5.34375 14.9141 5.76562L14.0703 6.59375ZM4.53906 16.1094L2.65625 16.8281C2.42969 16.9141 2.1875 16.6641 2.28125 16.4375L3.03906 14.6016L11.8203 5.82812L13.3203 7.32812L4.53906 16.1094ZM5.41406 16.8359L6.95312 15.3047H16.9766C17.3984 15.3047 17.7422 15.6484 17.7422 16.0703C17.7422 16.4922 17.3984 16.8359 16.9766 16.8359H5.41406Z" fill="#5C5C5C"/>
</svg>
