<svg width="20" height="19" viewBox="0 0 20 19" fill="none" xmlns="http://www.w3.org/2000/svg">
<path d="M2.16858 7.82715C2.16858 4.26453 5.0647 1.36841 8.62732 1.36841C12.1899 1.36841 15.0861 4.26453 15.0861 7.82715C15.0861 9.2157 14.6338 10.5011 13.88 11.5405L17.5061 15.1746C17.7203 15.3967 17.8314 15.6903 17.8314 16.0077C17.8314 16.6663 17.3474 17.1741 16.673 17.1741C16.3635 17.1741 16.0541 17.0709 15.8319 16.8408L12.182 13.1909C11.1664 13.8812 9.95239 14.2859 8.62732 14.2859C5.0647 14.2859 2.16858 11.3898 2.16858 7.82715ZM3.81897 7.82715C3.81897 10.4852 5.96924 12.6355 8.62732 12.6355C11.2854 12.6355 13.4357 10.4852 13.4357 7.82715C13.4357 5.16907 11.2854 3.0188 8.62732 3.0188C5.96924 3.0188 3.81897 5.16907 3.81897 7.82715Z" fill="#5C5C5C"/>
</svg>
